<?xml version="1.0" encoding="UTF-8"?>
<svg version="1.1" xmlns="http://www.w3.org/2000/svg" width="28" height="36">
<path d="M0 0 C9.24 0 18.48 0 28 0 C28 11.88 28 23.76 28 36 C18.76 36 9.52 36 0 36 C0 24.12 0 12.24 0 0 Z " fill="#3C4371" transform="translate(0,0)"/>
<path d="M0 0 C2.0625 0.4375 2.0625 0.4375 4 1 C4.33 3.31 4.66 5.62 5 8 C2.69 8 0.38 8 -2 8 C-1.125 1.125 -1.125 1.125 0 0 Z " fill="#04A0F1" transform="translate(18,11)"/>
<path d="M0 0 C1.2065625 0.0309375 1.2065625 0.0309375 2.4375 0.0625 C3.41870464 3.11513664 3.41870464 5.00986336 2.4375 8.0625 C0.7875 8.0625 -0.8625 8.0625 -2.5625 8.0625 C-2.94313221 5.7364143 -3.27519945 3.40194736 -3.5625 1.0625 C-2.5625 0.0625 -2.5625 0.0625 0 0 Z " fill="#069DEE" transform="translate(9.5625,10.9375)"/>
<path d="M0 0 C1.125 3.75 1.125 3.75 0 6 C-1.65 6 -3.3 6 -5 6 C-5.33 4.02 -5.66 2.04 -6 0 C-3.50907189 -1.24546405 -2.58919267 -0.7767578 0 0 Z " fill="#03A1F3" transform="translate(12,22)"/>
<path d="M0 0 C9.24 0 18.48 0 28 0 C28 0.33 28 0.66 28 1 C26.88757935 1.029729 26.88757935 1.029729 25.75268555 1.06005859 C22.39726166 1.15522928 19.04246714 1.26494094 15.6875 1.375 C14.52025391 1.4059375 13.35300781 1.436875 12.15039062 1.46875 C10.47299805 1.52675781 10.47299805 1.52675781 8.76171875 1.5859375 C7.2142395 1.63306885 7.2142395 1.63306885 5.63549805 1.68115234 C2.77156764 1.82674629 2.77156764 1.82674629 0 4 C0 2.68 0 1.36 0 0 Z " fill="#313338" transform="translate(0,0)"/>
<path d="M0 0 C2 1.375 2 1.375 4 3 C4 3.66 4 4.32 4 5 C3.34 5 2.68 5 2 5 C2 5.66 2 6.32 2 7 C-0.475 6.01 -0.475 6.01 -3 5 C-1.125 1.125 -1.125 1.125 0 0 Z " fill="#069CEC" transform="translate(19,21)"/>
</svg>